<svg viewBox="0 0 500 500" fill="none" xmlns="http://www.w3.org/2000/svg">
<circle cx="250" cy="250" r="215" fill="#42424D" stroke="#B22EF9" stroke-width="20"/>
<path d="M141.984 249.31C140.077 249.31 138.304 248.865 136.558 248.244M97.0365 223.053C114.422 226.356 135.382 231.434 153.156 231.434M242.205 176.648C241.591 169.343 240.025 162.117 239.64 154.8C238.641 135.823 233.759 118.594 219.819 104.938C208.067 93.4264 189.257 95.9342 175.625 102.993C167.623 107.137 162.413 116.021 157.998 123.559C151.649 134.398 147.762 148.646 145.791 160.966C143.446 175.62 144.218 190.575 144.218 205.366C134.051 211.775 125.456 215.104 113.597 217.614C110.892 218.186 91.6326 219.406 98.4524 226.055C107.574 234.949 121.292 241.93 132.922 246.786C133.732 247.125 134.533 247.466 135.334 247.783M242.205 176.648C242.813 183.876 243.275 191.083 244.481 198.248M242.205 176.648C242.495 180.101 242.752 183.548 243.073 186.989M244.481 198.248C246.423 209.785 250.005 222.523 255.571 232.841C265.861 251.915 288.261 276.556 312.757 271.531C328.22 268.359 342.134 259.658 356.082 252.621C369.008 246.099 383.476 238.216 394.317 228.497L403.43 218.777M244.481 198.248C243.851 194.505 243.424 190.751 243.073 186.989M403.43 218.777C401.985 222.377 401.646 226.924 400.772 230.607C398.99 238.11 396.921 245.529 395.724 253.159C392.011 276.798 385.567 303.908 368.082 321.559C353.316 336.464 334.014 350.447 313.461 355.821C301.007 359.077 289.935 361.852 276.964 362.359C264.38 362.85 251.653 362.749 239.06 362.524C223.145 362.24 209.992 353.966 197.598 344.814C188.025 337.744 180.625 327.603 174.922 317.338C168.409 305.614 160.395 294.801 153.901 283.076C149.612 275.332 145.514 267.541 141.073 259.903C139.057 256.435 137.551 253.536 137.551 249.5C137.482 249.194 137.196 248.652 136.558 248.244M403.43 218.777C406.4 211.375 397.006 216.527 392.661 219.517C389.279 221.021 384.664 220.262 381.075 220.262H362.454C321.463 220.262 277.321 210.189 243.073 186.989M179.97 142.8V160.676M194.122 144.29C194.013 149.082 191.913 155.514 194.122 159.931M169.543 177.807C172.798 184.767 178.215 192.459 186.839 192.372C196.806 192.273 203.418 183.881 204.55 174.828M189.054 337.174C186.004 350.052 177.972 363.814 174.756 376.676M165.074 357.31C168.573 357.31 184.655 354.787 185.143 359.669C185.652 364.758 185.184 370.071 185.184 375.186M255.079 362.707C254.541 365.731 254.454 370.711 254.454 373.779C254.454 378.426 253.186 382.402 252.343 386.897C251.888 389.323 250.729 392.123 250.729 394.552M237.322 387.103C242.929 383.249 248.868 379.886 254.702 376.386C256.745 375.16 255.862 376.311 256.316 378.579C257.919 386.598 259.367 394.394 261.902 402M135.334 247.783C135.839 247.874 136.242 248.042 136.558 248.244M135.334 247.783C135.741 247.944 136.149 248.099 136.558 248.244" stroke="#B22EF9" stroke-width="10" stroke-linecap="round"/>
</svg>
