<svg width="500" height="500" viewBox="0 0 500 500" fill="none" xmlns="http://www.w3.org/2000/svg">
<path d="M89.9373 249.72C87.1426 249.72 84.5431 249.063 81.9836 248.147M24.0536 210.98C49.5366 215.853 80.2611 223.346 106.314 223.346M236.842 142.514C235.942 131.735 233.646 121.074 233.081 110.279C231.617 82.2799 224.462 56.8597 204.028 36.7117C186.802 19.7275 159.23 23.4275 139.249 33.8423C127.52 39.9563 119.882 53.0637 113.41 64.1849C104.104 80.1775 98.4068 101.199 95.5175 119.375C92.0806 140.997 93.2126 163.062 93.2126 184.884C78.3102 194.34 65.7114 199.252 48.3286 202.955C44.3628 203.8 16.1326 205.599 26.1292 215.409C39.4998 228.531 59.607 238.831 76.6541 245.996C77.842 246.495 79.0156 246.998 80.19 247.466M236.842 142.514C237.732 153.178 238.41 163.811 240.178 174.383M236.842 142.514C237.267 147.608 237.644 152.694 238.114 157.77M240.178 174.383C243.024 191.404 248.274 210.199 256.433 225.422C271.516 253.564 304.35 289.919 340.257 282.505C362.921 277.825 383.318 264.988 403.762 254.604C422.708 244.982 443.915 233.352 459.806 219.011L473.164 204.671M240.178 174.383C239.254 168.861 238.628 163.322 238.114 157.77M473.164 204.671C471.047 209.982 470.55 216.692 469.268 222.125C466.656 233.195 463.624 244.142 461.869 255.398C456.427 290.276 446.982 330.275 421.352 356.316C399.707 378.308 371.415 398.939 341.288 406.867C323.033 411.67 306.804 415.766 287.791 416.513C269.346 417.237 250.691 417.089 232.232 416.757C208.904 416.338 189.623 404.13 171.456 390.627C157.424 380.197 146.577 365.234 138.218 350.089C128.671 332.791 116.925 316.838 107.406 299.538C101.119 288.112 95.1118 276.618 88.6029 265.349C85.6474 260.233 83.439 255.955 83.439 250C83.3379 249.548 82.9191 248.749 81.9836 248.147M473.164 204.671C477.519 193.75 463.748 201.351 457.38 205.763C452.422 207.981 445.657 206.862 440.397 206.862H413.103C353.017 206.862 288.314 192 238.114 157.77M145.618 92.5738V118.948M166.362 94.7716C166.202 101.842 163.124 111.331 166.362 117.849M130.333 144.223C135.105 154.493 143.045 165.841 155.686 165.713C170.296 165.566 179.988 153.186 181.646 139.828M158.933 379.355C154.462 398.355 142.689 418.66 137.975 437.637M123.782 409.064C128.912 409.064 152.484 405.342 153.2 412.544C153.946 420.053 153.26 427.892 153.26 435.439M255.712 417.027C254.924 421.489 254.795 428.836 254.795 433.363C254.795 440.219 252.937 446.084 251.702 452.716C251.035 456.296 249.336 460.428 249.336 464.011M229.684 453.022C237.903 447.335 246.608 442.373 255.159 437.209C258.154 435.4 256.86 437.098 257.525 440.445C259.875 452.275 261.997 463.778 265.713 475M80.19 247.466C80.9306 247.6 81.5204 247.85 81.9836 248.147M80.19 247.466C80.787 247.704 81.3842 247.933 81.9836 248.147" stroke="#B22EF9" stroke-width="10" stroke-linecap="round"/>
</svg>
